<svg id="Layer_1" xmlns="http://www.w3.org/2000/svg" viewBox="0 0 598.7 842.5"><style>.st0{fill:#0F0F0F;} .st1{fill:#B1B1B1;} .st2{fill:#3AEF00;} .st3{fill:url(#SVGID_1_);}</style><path class="st0" d="M598.7 842.5V23c0-12.7-10.3-23-23-23H23C10.3 0 0 10.3 0 23v819.5h598.7z"/><path class="st1" d="M25.7 498.3c2.6 0 3.8 2.1 3.9 2.2 1.7-1.2 2-3.1 2-3.7.2-1.6-.9-3.1-.9-3.9 0-.8.9-2 .9-3.4 0-1.7-1-3.3-2.6-4.2-3.1-1.8-7.7-.5-10.3 1.3-1.2.9-2.6 1.9-2.6 3.2.1 1.3.8 1.8.8 3.3s-.8 2-.8 3.4 1.3 2.3 2.5 3.1c1.4 1 2.8 1.4 2.9 1.4.1 0 1.1-2.6 4.2-2.7zm7.5-2.5c.9.7 2.1 1.2 3.3 1.1 0-1-.7-2.3-1.5-3-.8-.7-2-1.2-3.2-1.1-.1 1.1.6 2.3 1.4 3z"/><circle class="st2" cx="585.3" cy="504.2" r="1.1"/><linearGradient id="SVGID_1_" gradientUnits="userSpaceOnUse" x1="585.325" y1="497.021" x2="585.325" y2="489.021"><stop offset="0" stop-color="#414142"/><stop offset=".281" stop-color="#2F2F2F"/><stop offset=".725" stop-color="#181818"/><stop offset="1" stop-color="#0F0F0F"/></linearGradient><path class="st3" d="M585.3 489c-2.2 0-4 1.8-4 4s1.8 4 4 4 4-1.8 4-4-1.8-4-4-4zm0 7c-1.7 0-3-1.3-3-3s1.3-3 3-3 3 1.3 3 3-1.3 3-3 3z"/></svg>